<svg width="153" height="45" viewBox="0 0 153 45" fill="none" xmlns="http://www.w3.org/2000/svg">
<g clip-path="url(#clip0_55_8)">
<path d="M37.9491 28C36.6691 28 36.0291 27.3667 36.0291 26.1V15.8C36.0291 14.5333 36.6691 13.9 37.9491 13.9H44.7291C45.6891 13.9 46.1691 14.3667 46.1691 15.3C46.1691 16.26 45.6891 16.74 44.7291 16.74H39.5491V19.42H44.2891C45.2491 19.42 45.7291 19.8933 45.7291 20.84C45.7291 21.7867 45.2491 22.26 44.2891 22.26H39.5491V25.16H44.7291C45.6891 25.16 46.1691 25.6333 46.1691 26.58C46.1691 27.5267 45.6891 28 44.7291 28H37.9491ZM49.4543 28.16C49.001 28.16 48.641 28.04 48.3743 27.8C48.121 27.56 47.9876 27.2533 47.9743 26.88C47.9743 26.5067 48.1276 26.1267 48.4343 25.74L50.7543 22.92L48.6743 20.4C48.3543 20.0133 48.201 19.6333 48.2143 19.26C48.2276 18.8867 48.361 18.58 48.6143 18.34C48.881 18.1 49.241 17.98 49.6943 17.98C50.121 17.98 50.4676 18.0533 50.7343 18.2C51.0143 18.3333 51.281 18.56 51.5343 18.88L52.7743 20.48L54.0143 18.88C54.2676 18.56 54.5343 18.3333 54.8143 18.2C55.0943 18.0533 55.441 17.98 55.8543 17.98C56.2943 17.98 56.6476 18.1 56.9143 18.34C57.181 18.58 57.3143 18.8867 57.3143 19.26C57.3276 19.6333 57.1743 20.0133 56.8543 20.4L54.7743 22.92L57.1143 25.74C57.4343 26.1267 57.5876 26.5067 57.5743 26.88C57.561 27.2533 57.4143 27.56 57.1343 27.8C56.8676 28.04 56.5143 28.16 56.0743 28.16C55.661 28.16 55.3143 28.0933 55.0343 27.96C54.7543 27.8133 54.4876 27.58 54.2343 27.26L52.7543 25.38L51.2743 27.26C51.021 27.5667 50.761 27.7933 50.4943 27.94C50.2276 28.0867 49.881 28.16 49.4543 28.16ZM64.6062 28.22C63.4062 28.22 62.3662 28.0133 61.4862 27.6C60.6195 27.1733 59.9528 26.5733 59.4862 25.8C59.0195 25.0267 58.7862 24.1133 58.7862 23.06C58.7862 22.06 59.0062 21.1733 59.4462 20.4C59.8995 19.6267 60.5128 19.0267 61.2862 18.6C62.0728 18.16 62.9662 17.94 63.9662 17.94C64.9528 17.94 65.8062 18.1467 66.5262 18.56C67.2595 18.9733 67.8195 19.5667 68.2062 20.34C68.6062 21.1 68.8062 21.9933 68.8062 23.02C68.8062 23.54 68.4995 23.8 67.8862 23.8H62.1862C62.3062 24.44 62.5728 24.9 62.9862 25.18C63.3995 25.46 63.9728 25.6 64.7062 25.6C64.9862 25.6 65.3195 25.5667 65.7062 25.5C66.0928 25.4333 66.4595 25.3267 66.8062 25.18C67.2328 25.02 67.5928 25.02 67.8862 25.18C68.1795 25.3267 68.3728 25.56 68.4662 25.88C68.5728 26.1867 68.5595 26.5067 68.4262 26.84C68.3062 27.16 68.0595 27.4067 67.6862 27.58C67.2195 27.8067 66.7195 27.9667 66.1862 28.06C65.6662 28.1667 65.1395 28.22 64.6062 28.22ZM64.1262 20.24C63.5928 20.24 63.1528 20.4 62.8062 20.72C62.4728 21.04 62.2595 21.5067 62.1662 22.12H65.8862C65.8462 21.4933 65.6728 21.0267 65.3662 20.72C65.0728 20.4 64.6595 20.24 64.1262 20.24ZM72.1599 28.18C70.9466 28.18 70.3399 27.58 70.3399 26.38V19.76C70.3399 18.5733 70.9199 17.98 72.0799 17.98C72.6266 17.98 73.0466 18.1333 73.3399 18.44C73.6466 18.7467 73.7999 19.1867 73.7999 19.76V19.82C74.0266 19.2467 74.3933 18.7933 74.8999 18.46C75.4066 18.1267 76.0066 17.9533 76.6999 17.94C77.0866 17.9267 77.3733 18.0267 77.5599 18.24C77.7599 18.44 77.8666 18.82 77.8799 19.38C77.8799 19.86 77.7799 20.24 77.5799 20.52C77.3799 20.8 76.9999 20.9667 76.4399 21.02L75.9799 21.06C75.2733 21.1267 74.7599 21.3267 74.4399 21.66C74.1199 21.98 73.9599 22.46 73.9599 23.1V26.38C73.9599 27.58 73.3599 28.18 72.1599 28.18ZM83.856 28.22C82.7494 28.22 81.7827 28.0133 80.956 27.6C80.1427 27.1867 79.5094 26.5933 79.056 25.82C78.6027 25.0467 78.376 24.1267 78.376 23.06C78.376 21.9933 78.6027 21.08 79.056 20.32C79.5094 19.5467 80.1427 18.96 80.956 18.56C81.7827 18.1467 82.7494 17.94 83.856 17.94C84.2427 17.94 84.6494 17.98 85.076 18.06C85.5027 18.1267 85.9427 18.26 86.396 18.46C86.7027 18.58 86.9227 18.7667 87.056 19.02C87.1894 19.26 87.2427 19.52 87.216 19.8C87.2027 20.08 87.1227 20.3333 86.976 20.56C86.8427 20.7867 86.6494 20.94 86.396 21.02C86.156 21.1 85.8827 21.0667 85.576 20.92C85.136 20.72 84.6894 20.62 84.236 20.62C83.5294 20.62 82.9827 20.8333 82.596 21.26C82.2094 21.6867 82.016 22.2867 82.016 23.06C82.016 23.8467 82.2094 24.46 82.596 24.9C82.9827 25.3267 83.5294 25.54 84.236 25.54C84.4494 25.54 84.6694 25.52 84.896 25.48C85.1227 25.4267 85.3494 25.3467 85.576 25.24C85.896 25.0933 86.1694 25.0667 86.396 25.16C86.636 25.24 86.8227 25.3933 86.956 25.62C87.1027 25.8333 87.1827 26.08 87.196 26.36C87.2227 26.64 87.1694 26.9067 87.036 27.16C86.9027 27.4 86.676 27.58 86.356 27.7C85.9027 27.9 85.4694 28.0333 85.056 28.1C84.6427 28.18 84.2427 28.22 83.856 28.22ZM90.2835 16.56C89.6569 16.56 89.1702 16.4133 88.8235 16.12C88.4902 15.8267 88.3235 15.4 88.3235 14.84C88.3235 14.2933 88.4902 13.8733 88.8235 13.58C89.1702 13.2867 89.6569 13.14 90.2835 13.14C91.6035 13.14 92.2635 13.7067 92.2635 14.84C92.2635 15.4 92.0902 15.8267 91.7435 16.12C91.4102 16.4133 90.9235 16.56 90.2835 16.56ZM90.2835 28.18C89.7102 28.18 89.2702 28.0133 88.9635 27.68C88.6702 27.3467 88.5235 26.8667 88.5235 26.24V19.92C88.5235 19.2933 88.6702 18.8133 88.9635 18.48C89.2702 18.1467 89.7102 17.98 90.2835 17.98C90.8569 17.98 91.2969 18.1467 91.6035 18.48C91.9235 18.8133 92.0835 19.2933 92.0835 19.92V26.24C92.0835 26.8667 91.9302 27.3467 91.6235 27.68C91.3169 28.0133 90.8702 28.18 90.2835 28.18ZM98.0685 28.22C97.4685 28.22 96.8685 28.1733 96.2685 28.08C95.6685 27.9867 95.1219 27.8333 94.6285 27.62C94.2152 27.46 93.9419 27.2267 93.8085 26.92C93.6885 26.6133 93.6752 26.3067 93.7685 26C93.8752 25.6933 94.0619 25.46 94.3285 25.3C94.5952 25.14 94.9152 25.1267 95.2885 25.26C95.8352 25.46 96.3352 25.6067 96.7885 25.7C97.2419 25.78 97.6752 25.82 98.0885 25.82C98.5819 25.82 98.9352 25.7533 99.1485 25.62C99.3619 25.4733 99.4685 25.2867 99.4685 25.06C99.4685 24.86 99.3952 24.7133 99.2485 24.62C99.1152 24.5133 98.9219 24.4333 98.6685 24.38L96.4485 24.02C95.6219 23.8867 94.9819 23.5867 94.5285 23.12C94.0752 22.6533 93.8485 22.0467 93.8485 21.3C93.8485 20.6067 94.0419 20.0133 94.4285 19.52C94.8152 19.0133 95.3552 18.6267 96.0485 18.36C96.7419 18.08 97.5352 17.94 98.4285 17.94C99.0285 17.94 99.5752 17.9867 100.069 18.08C100.562 18.1733 101.042 18.3267 101.509 18.54C101.869 18.6867 102.095 18.9133 102.189 19.22C102.295 19.5267 102.289 19.8333 102.169 20.14C102.062 20.4333 101.869 20.66 101.589 20.82C101.322 20.9667 100.995 20.9667 100.609 20.82C100.169 20.6467 99.7752 20.52 99.4285 20.44C99.0952 20.36 98.7819 20.32 98.4885 20.32C97.9419 20.32 97.5552 20.4 97.3285 20.56C97.1019 20.7067 96.9885 20.8867 96.9885 21.1C96.9885 21.46 97.2352 21.68 97.7285 21.76L99.9485 22.14C100.802 22.2733 101.455 22.5667 101.909 23.02C102.375 23.46 102.609 24.06 102.609 24.82C102.609 25.9 102.195 26.74 101.369 27.34C100.542 27.9267 99.4419 28.22 98.0685 28.22ZM109.43 28.22C108.23 28.22 107.19 28.0133 106.31 27.6C105.444 27.1733 104.777 26.5733 104.31 25.8C103.844 25.0267 103.61 24.1133 103.61 23.06C103.61 22.06 103.83 21.1733 104.27 20.4C104.724 19.6267 105.337 19.0267 106.11 18.6C106.897 18.16 107.79 17.94 108.79 17.94C109.777 17.94 110.63 18.1467 111.35 18.56C112.084 18.9733 112.644 19.5667 113.03 20.34C113.43 21.1 113.63 21.9933 113.63 23.02C113.63 23.54 113.324 23.8 112.71 23.8H107.01C107.13 24.44 107.397 24.9 107.81 25.18C108.224 25.46 108.797 25.6 109.53 25.6C109.81 25.6 110.144 25.5667 110.53 25.5C110.917 25.4333 111.284 25.3267 111.63 25.18C112.057 25.02 112.417 25.02 112.71 25.18C113.004 25.3267 113.197 25.56 113.29 25.88C113.397 26.1867 113.384 26.5067 113.25 26.84C113.13 27.16 112.884 27.4067 112.51 27.58C112.044 27.8067 111.544 27.9667 111.01 28.06C110.49 28.1667 109.964 28.22 109.43 28.22ZM108.95 20.24C108.417 20.24 107.977 20.4 107.63 20.72C107.297 21.04 107.084 21.5067 106.99 22.12H110.71C110.67 21.4933 110.497 21.0267 110.19 20.72C109.897 20.4 109.484 20.24 108.95 20.24Z" fill="white"/>
<path d="M5.88476 13.2716C5.88476 11.6683 4.56741 10.3687 2.94238 10.3687C1.31735 10.3687 0 11.6683 0 13.2716V31.7265C0 33.3298 1.31735 34.6295 2.94238 34.6295C4.56741 34.6295 5.88476 33.3298 5.88476 31.7265V13.2716Z" fill="#AD00FF"/>
<path d="M13.5348 8.87472C13.5348 7.27148 12.2174 5.9718 10.5924 5.9718C8.96737 5.9718 7.65002 7.27148 7.65002 8.87472V36.1252C7.65002 37.7285 8.96737 39.0281 10.5924 39.0281C12.2174 39.0281 13.5348 37.7285 13.5348 36.1252V8.87472Z" fill="#AD00FF"/>
<path d="M21.1847 2.90292C21.1847 1.29968 19.8674 0 18.2424 0C16.6173 0 15.3 1.29968 15.3 2.90292V42.0971C15.3 43.7003 16.6173 45 18.2424 45C19.8674 45 21.1847 43.7003 21.1847 42.0971V22.5V2.90292Z" fill="#AD00FF"/>
<path d="M28.762 19.1038H24.7879L22.8008 22.4991L24.7879 25.8943H28.762L30.7491 22.4991L28.762 19.1038Z" fill="#AD00FF"/>
<path d="M153.075 13.2716C153.075 11.6683 151.757 10.3687 150.132 10.3687C148.507 10.3687 147.19 11.6683 147.19 13.2716V31.7265C147.19 33.3298 148.507 34.6295 150.132 34.6295C151.757 34.6295 153.075 33.3298 153.075 31.7265V13.2716Z" fill="#AD00FF"/>
<path d="M145.425 8.87472C145.425 7.27148 144.107 5.9718 142.482 5.9718C140.857 5.9718 139.54 7.27148 139.54 8.87472V36.1252C139.54 37.7285 140.857 39.0281 142.482 39.0281C144.107 39.0281 145.425 37.7285 145.425 36.1252V8.87472Z" fill="#AD00FF"/>
<path d="M137.775 2.90292C137.775 1.29968 136.457 0 134.832 0C133.207 0 131.89 1.29968 131.89 2.90292V42.0971C131.89 43.7003 133.207 45 134.832 45C136.457 45 137.775 43.7003 137.775 42.0971V2.90292Z" fill="#AD00FF"/>
<path d="M128.287 19.1038H124.312L122.325 22.4991L124.312 25.8943H128.287L130.274 22.4991L128.287 19.1038Z" fill="#AD00FF"/>
</g>
<defs>
<clipPath id="clip0_55_8">
<rect width="153" height="45" fill="white"/>
</clipPath>
</defs>
</svg>
