<svg xmlns="http://www.w3.org/2000/svg" viewBox="0 0 800 238.57"><title>logo-gym-white</title><g id="Layer_2" data-name="Layer 2"><g id="Layer_1-2" data-name="Layer 1"><text transform="translate(181.76 148.44)" style="font-size:110px;fill:#fff;font-family:Nunito-Black, Nunito">Exercise</text><rect y="54.97" width="30.77" height="128.62" rx="15.39" ry="15.39" style="fill:#fff"/><rect x="40" y="31.66" width="30.77" height="175.25" rx="15.39" ry="15.39" style="fill:#fff"/><rect x="80" width="30.77" height="238.57" rx="15.39" ry="15.39" style="fill:#fff"/><polygon points="150.39 101.28 129.61 101.28 119.22 119.28 129.61 137.28 150.39 137.28 160.78 119.28 150.39 101.28" style="fill:#9927f3"/><rect x="769.23" y="54.97" width="30.77" height="128.62" rx="15.39" ry="15.39" style="fill:#fff"/><rect x="729.23" y="31.66" width="30.77" height="175.25" rx="15.39" ry="15.39" style="fill:#fff"/><rect x="689.23" width="30.77" height="238.57" rx="15.39" ry="15.39" style="fill:#fff"/><polygon points="670.39 101.28 649.61 101.28 639.22 119.28 649.61 137.28 670.39 137.28 680.78 119.28 670.39 101.28" style="fill:#9927f3"/></g></g></svg>